<svg width="20" height="20" viewBox="0 0 20 20" fill="none" xmlns="http://www.w3.org/2000/svg">
<path d="M16.4858 16.5866H13.6706V12.1777C13.6706 11.1264 13.6518 9.773 12.2064 9.773C10.7401 9.773 10.5158 10.9185 10.5158 12.1012V16.5863H7.70056V7.51988H10.4032V8.75891H10.441C10.7115 8.29645 11.1023 7.91601 11.5719 7.6581C12.0414 7.4002 12.5722 7.27449 13.1075 7.29436C15.9609 7.29436 16.487 9.17123 16.487 11.6129L16.4858 16.5866ZM4.52408 6.28056C4.20096 6.28062 3.88508 6.18486 3.61639 6.00539C3.34769 5.82592 3.13827 5.5708 3.01456 5.27229C2.89086 4.97378 2.85844 4.64529 2.92142 4.32836C2.9844 4.01144 3.13995 3.7203 3.36838 3.49178C3.59682 3.26325 3.88789 3.1076 4.20479 3.0445C4.52168 2.98141 4.85016 3.0137 5.1487 3.1373C5.44725 3.2609 5.70243 3.47026 5.88199 3.7389C6.06155 4.00753 6.15743 4.32339 6.15749 4.64651C6.15753 4.86106 6.1153 5.07351 6.03324 5.27175C5.95117 5.46998 5.83088 5.6501 5.6792 5.80184C5.52753 5.95357 5.34744 6.07395 5.14924 6.15609C4.95105 6.23822 4.73862 6.28052 4.52408 6.28056ZM5.93168 16.5866H3.11354V7.51988H5.93168V16.5866ZM17.8893 0.398633H1.69891C1.33143 0.394486 0.977327 0.536406 0.714432 0.793206C0.451537 1.05001 0.30136 1.40068 0.296875 1.76816V18.0262C0.301206 18.3939 0.451295 18.7448 0.714181 19.0019C0.977067 19.2589 1.33125 19.4011 1.69891 19.3972H17.8893C18.2577 19.4018 18.6128 19.2601 18.8768 19.003C19.1407 18.7459 19.2918 18.3946 19.2969 18.0262V1.76699C19.2916 1.39877 19.1404 1.0477 18.8765 0.790911C18.6126 0.534118 18.2575 0.392604 17.8893 0.39746" fill="#F5F4EF"/>
</svg>
