<svg width="40" height="39" viewBox="0 0 40 39" fill="none" xmlns="http://www.w3.org/2000/svg">
<path d="M20 0C8.95 0 0 8.95281 0 19.9951C0 28.8313 5.73 36.3244 13.675 38.9655C14.675 39.1537 15.0417 38.5356 15.0417 38.004C15.0417 37.5291 15.025 36.2711 15.0167 34.6049C9.45333 35.8112 8.28 31.9222 8.28 31.9222C7.37 29.6144 6.055 28.9979 6.055 28.9979C4.24333 27.7582 6.195 27.7832 6.195 27.7832C8.20333 27.9232 9.25833 29.8427 9.25833 29.8427C11.0417 32.9003 13.94 32.0172 15.0833 31.5056C15.2633 30.2126 15.7783 29.3311 16.35 28.8313C11.9083 28.3314 7.24 26.6118 7.24 18.9504C7.24 16.7676 8.015 14.9847 9.29833 13.585C9.07333 13.0801 8.39833 11.0473 9.47333 8.29297C9.47333 8.29297 11.1483 7.75643 14.9733 10.3425C16.5733 9.89758 18.2733 9.67763 19.9733 9.66763C21.6733 9.67763 23.3733 9.89758 24.9733 10.3425C28.7733 7.75643 30.4483 8.29297 30.4483 8.29297C31.5233 11.0473 30.8483 13.0801 30.6483 13.585C31.9233 14.9847 32.6983 16.7676 32.6983 18.9504C32.6983 26.6318 28.0233 28.3231 23.5733 28.8146C24.2733 29.4145 24.9233 30.6408 24.9233 32.5137C24.9233 35.1897 24.8983 37.3392 24.8983 37.989C24.8983 38.5139 25.2483 39.1387 26.2733 38.9388C34.275 36.3161 40 28.8179 40 19.9951C40 8.95281 31.045 0 20 0Z" fill="#003566"/>
</svg>
