<svg width="40" height="41" viewBox="0 0 40 41" fill="none" xmlns="http://www.w3.org/2000/svg">
<path d="M34.0783 34.5867H28.155V25.305C28.155 23.0917 28.11 20.2433 25.0683 20.2433C21.98 20.2433 21.5083 22.6517 21.5083 25.1417V34.5867H15.585V15.5H21.275V18.1017H21.3517C22.1467 16.6017 24.08 15.0183 26.9683 15.0183C32.97 15.0183 34.08 18.9683 34.08 24.11L34.0783 34.5867ZM8.895 12.8883C6.98833 12.8883 5.45667 11.345 5.45667 9.44667C5.45667 7.55 6.99 6.00833 8.895 6.00833C10.795 6.00833 12.335 7.55 12.335 9.44667C12.335 11.345 10.7933 12.8883 8.895 12.8883ZM11.865 34.5867H5.925V15.5H11.865V34.5867ZM37.0417 0.5H2.95167C1.32 0.5 0 1.79 0 3.38167V37.6183C0 39.2117 1.32 40.5 2.95167 40.5H37.0367C38.6667 40.5 40 39.2117 40 37.6183V3.38167C40 1.79 38.6667 0.5 37.0367 0.5L37.0417 0.5Z" fill="#003566"/>
</svg>
